<svg width="113" height="43" viewBox="0 0 113 43" fill="none" xmlns="http://www.w3.org/2000/svg">
<g clip-path="url(#clip0_198_249)">
<path d="M38.7621 13.5262C38.7705 13.2884 38.9965 13.2601 39.1471 13.1768C44.7914 10.0271 50.4399 6.8827 56.0828 3.72891C56.3884 3.55826 56.6255 3.59185 56.9129 3.75176C61.9378 6.55617 66.9683 9.35251 71.9946 12.1529C72.6782 12.5332 73.3548 12.9282 74.0342 13.3152C74.1932 13.6458 73.8988 13.7251 73.7035 13.8312C71.6668 14.9425 69.6579 16.0981 67.6212 17.2108C66.6851 17.7214 65.7714 18.271 64.8241 18.7614C64.6065 18.8743 64.3415 19.1296 64.0931 18.7735C64.0429 18.5451 64.1531 18.3462 64.2201 18.1393C64.467 17.3747 64.7697 16.6289 64.9901 15.8563C65.0738 15.5633 65.085 15.2583 64.7488 15.093C64.4182 14.9304 64.1643 15.1038 63.9564 15.3349C63.2784 16.0914 62.6004 16.8479 61.928 17.6099C61.1943 18.4403 60.4507 19.2627 59.7211 20.0958C59.5872 20.249 59.456 20.4505 59.2286 20.4196C58.9552 20.382 58.9287 20.12 58.8757 19.913C58.3191 17.7792 57.7653 15.6439 57.2114 13.5087C57.1514 13.2789 57.1054 13.0465 57.0105 12.8274C56.9185 12.6111 56.765 12.4539 56.5069 12.4499C56.2489 12.4458 56.0926 12.6044 55.9838 12.8086C55.8875 12.9887 55.8513 13.1876 55.801 13.3811C55.2695 15.4276 54.738 17.4741 54.2079 19.5207C54.1619 19.6967 54.1242 19.8768 54.0642 20.0488C53.9052 20.4989 53.7476 20.5527 53.3974 20.21C52.7613 19.5892 52.2033 18.8999 51.6132 18.2374C50.8389 17.368 50.0591 16.5053 49.2946 15.6278C49.1732 15.4881 49.0337 15.3644 48.8956 15.2408C48.6878 15.0567 48.4562 14.9358 48.1814 15.093C47.8898 15.2596 47.8703 15.5244 47.9456 15.8119C47.9791 15.9355 48.0223 16.0551 48.0628 16.1761C48.3069 16.903 48.572 17.6233 48.8119 18.3516C48.8789 18.5545 49.0016 18.7547 48.9012 18.9832C48.6403 19.1646 48.4283 18.9872 48.2288 18.8757C45.2406 17.2094 42.2511 15.5459 39.2573 13.889C39.0774 13.7896 38.9072 13.674 38.7635 13.5275L38.7621 13.5262Z" fill="#C859A4"/>
<path d="M64.1671 18.7627C64.442 18.9831 64.6275 18.713 64.8061 18.6176C66.3434 17.7845 67.8668 16.9272 69.3943 16.0779C70.8075 15.2918 72.2221 14.5071 73.6366 13.721C73.8124 13.6242 74.0356 13.5718 74.0342 13.3152C74.3021 13.3998 74.263 13.6189 74.263 13.8151C74.2644 20.1307 74.263 26.4463 74.27 32.7606C74.27 33.0334 74.1737 33.1785 73.9296 33.3142C68.2267 36.4814 62.5294 39.6581 56.8265 42.8253C56.6898 42.9019 56.5489 43.1155 56.3396 42.922C56.2796 42.7473 56.2754 42.5659 56.2754 42.3832C56.2768 36.7179 56.2838 31.0527 56.2712 25.3888C56.2838 25.3189 56.2852 25.2235 56.3535 25.1966C57.058 24.9225 57.4347 24.3138 57.9062 23.8005C57.9941 23.7051 58.089 23.6164 58.1992 23.5438C58.4015 23.4094 58.5479 23.4538 58.647 23.6674C58.7405 23.869 58.7865 24.0827 58.8409 24.2936C59.5998 27.2243 60.3615 30.1551 61.1218 33.0858C61.1497 33.1919 61.1762 33.2981 61.2041 33.4029C61.2934 33.7241 61.3687 34.0681 61.8026 34.099C62.235 34.1299 62.3592 33.806 62.5015 33.4997C64.1853 29.8621 65.8733 26.2246 67.5375 22.5777C67.5906 22.4607 67.6519 22.3479 67.6896 22.2256C67.7663 21.9797 67.744 21.7526 67.525 21.5819C67.3213 21.422 67.0995 21.4623 66.8861 21.5658C66.5457 21.7311 66.2722 21.9891 65.9779 22.2148C64.8409 23.0883 63.7124 23.9711 62.5587 24.8257C62.3689 24.9655 62.1415 25.2235 61.9253 25.0717C61.6993 24.9131 61.9086 24.6349 61.9881 24.4213C62.6103 22.7416 63.1557 21.0364 63.7654 19.3527C63.8449 19.1336 63.8212 18.8232 64.1671 18.7627V18.7627Z" fill="#CC6AAD"/>
<path d="M56.3424 25.2424C56.4972 25.4319 56.4595 25.6563 56.4595 25.8726C56.4595 31.3686 56.4595 36.8632 56.4568 42.3591C56.4568 42.5499 56.5321 42.7649 56.3382 42.9221C54.2121 41.7504 52.0819 40.584 49.9587 39.4069C46.3972 37.4316 42.8426 35.4428 39.2755 33.4756C38.8849 33.2606 38.7273 33.0308 38.7286 32.5833C38.7454 26.4128 38.7398 20.241 38.7412 14.0705C38.7412 13.8891 38.7538 13.7077 38.7607 13.5249C39.701 13.8971 40.538 14.4507 41.4141 14.9345C43.5318 16.1009 45.6397 17.2847 47.7573 18.4497C48.113 18.6446 48.4283 18.9227 48.8538 18.9899C49.1133 19.0746 49.1426 19.3111 49.2123 19.5113C49.7717 21.1144 50.327 22.7202 50.8808 24.3246C50.9171 24.4281 50.9547 24.5316 50.9729 24.6391C50.9952 24.7667 51.0147 24.9092 50.8822 24.9857C50.7566 25.0597 50.6269 24.9884 50.5111 24.9253C50.3953 24.8621 50.2977 24.7761 50.1944 24.6968C48.9222 23.7253 47.6611 22.739 46.3888 21.7675C46.2256 21.6438 46.0721 21.5027 45.8517 21.4826C45.4206 21.4423 45.15 21.8145 45.3048 22.2593C45.5141 22.864 45.8154 23.4337 46.0847 24.0142C47.5341 27.1344 48.957 30.2667 50.4163 33.3828C50.5683 33.7094 50.6646 34.1313 51.1528 34.0897C51.6536 34.0467 51.7164 33.6126 51.8127 33.2431C52.5939 30.2438 53.3695 27.2432 54.1536 24.244C54.2247 23.9699 54.201 23.5869 54.5204 23.4902C54.8734 23.3827 55.0087 23.771 55.1929 23.9726C55.5779 24.3932 55.9936 24.7896 56.341 25.2411L56.3424 25.2424Z" fill="#C34B9C"/>
<path d="M56.3424 25.2424C55.7481 25.0046 55.4928 24.4348 55.0687 24.0303C54.8958 23.8664 54.7451 23.681 54.5163 23.4297C54.2471 24.4469 53.9946 25.3875 53.7504 26.3308C53.1338 28.7106 52.52 31.0904 51.909 33.4715C51.8099 33.8572 51.6886 34.2267 51.1975 34.2764C50.6981 34.3275 50.5181 33.9795 50.3507 33.6153C48.6516 29.924 46.9496 26.2354 45.2505 22.5442C45.1445 22.3144 45.0091 22.0873 45.0845 21.8158C45.2337 21.2783 45.8308 21.144 46.3526 21.5444C47.6974 22.5764 49.0366 23.6138 50.3786 24.6485C50.5237 24.76 50.6744 24.8648 50.9548 24.9145C50.2559 22.9406 49.557 20.9653 48.858 18.9913C48.5344 18.0251 48.2163 17.0576 47.8857 16.0942C47.7378 15.6642 47.5844 15.2328 48.1089 14.9412C48.6125 14.6617 48.9166 14.995 49.2096 15.3228C50.5 16.7728 51.789 18.2227 53.0808 19.6726C53.297 19.9158 53.523 20.1523 53.8062 20.46C54.2931 18.5868 54.7535 16.8144 55.2152 15.042C55.3938 14.3553 55.5891 13.6714 55.7495 12.9807C55.8416 12.5816 56.0369 12.2833 56.4777 12.2725C56.9604 12.2604 57.1418 12.5977 57.2464 13.0035C57.8476 15.3484 58.4587 17.6905 59.0641 20.034C59.0962 20.155 59.0906 20.2907 59.2622 20.3888C60.2876 19.2385 61.3199 18.0816 62.3494 16.9246C62.853 16.3589 63.3525 15.7891 63.8547 15.2221C64.1183 14.9251 64.4183 14.7208 64.8396 14.9318C65.2929 15.1576 65.2706 15.5338 65.1409 15.9222C64.8242 16.8722 64.495 17.8182 64.1713 18.7669C63.5645 20.4654 62.9591 22.1639 62.3522 23.8624C62.2127 24.2534 62.0704 24.6431 61.8765 25.1806C63.093 24.2521 64.1825 23.4189 65.272 22.5858C65.7296 22.2351 66.183 21.8777 66.6447 21.5323C66.9475 21.3052 67.2851 21.1803 67.6282 21.4409C67.9826 21.7097 67.9644 22.0483 67.7915 22.4219C66.0477 26.1924 64.3094 29.9643 62.5754 33.7376C62.4136 34.091 62.1806 34.3235 61.7621 34.2791C61.3687 34.2361 61.2027 33.9701 61.112 33.6207C60.289 30.432 59.4575 27.2433 58.6289 24.0559C58.5828 23.8798 58.534 23.7052 58.474 23.4861C57.9565 23.8758 57.6161 24.3811 57.2143 24.8258C56.9702 25.0959 56.7177 25.2599 56.3494 25.2464L56.3424 25.2424Z" fill="#FEFEFE"/>
<path d="M56.5307 15.9719C57.0064 17.8061 57.4668 19.5987 57.9425 21.3872C58.015 21.6614 57.9829 21.8535 57.7723 22.0658C57.3956 22.4461 57.051 22.856 56.7051 23.2618C56.5516 23.4432 56.4428 23.4741 56.2712 23.2712C55.9043 22.8345 55.5165 22.4125 55.1343 21.9892C55.0003 21.8414 54.9501 21.6829 55.0017 21.488C55.4733 19.6981 55.942 17.9069 56.4135 16.117C56.4219 16.0861 56.4568 16.0606 56.5293 15.9719H56.5307Z" fill="#C859A4"/>
<path d="M65.2287 24.553C64.1838 26.8199 63.1403 29.0868 62.0382 31.4787C61.7592 30.4225 61.5472 29.4725 61.2487 28.548C61.0338 27.8828 61.0938 27.4407 61.7578 27.0054C62.7999 26.3214 63.7486 25.5057 64.739 24.7479C64.8646 24.6525 65.0041 24.5759 65.138 24.4912C65.1687 24.5127 65.198 24.5329 65.2287 24.5544V24.553Z" fill="#CC6AAD"/>
<path d="M47.7615 24.6C48.0042 24.5234 48.0809 24.6537 48.1772 24.7263C49.3002 25.5877 50.4148 26.4584 51.5448 27.3103C51.8266 27.5227 51.9438 27.7108 51.8336 28.083C51.5169 29.162 51.2588 30.2572 50.9422 31.4881C49.8512 29.1257 48.8133 26.8777 47.7615 24.6Z" fill="#C34B9D"/>
<path d="M52.0428 20.7367C52.5255 21.0686 52.8226 21.5658 53.2328 21.9622C53.3583 22.0831 53.3458 22.2108 53.3053 22.3613C53.0696 23.2562 52.8422 24.1538 52.4906 25.0689C51.9577 23.4833 51.4248 21.899 50.8933 20.3134C50.8975 20.0231 51.1012 20.171 51.1932 20.2126C51.4974 20.351 51.7987 20.5015 52.0414 20.7353L52.0428 20.7367Z" fill="#C34B9D"/>
<path d="M62.1052 20.1897C61.5584 21.7713 61.0115 23.3516 60.466 24.9332C60.4228 24.9359 60.3809 24.9372 60.3377 24.9399C60.1047 24.0477 59.8704 23.1541 59.643 22.2605C59.6011 22.0979 59.7281 21.9904 59.8257 21.8815C60.2456 21.4152 60.6683 20.9517 61.0896 20.4881C61.4691 20.519 61.6769 20.0043 62.1052 20.1911V20.1897Z" fill="#CC6AAE"/>
<path d="M52.0429 20.7369C51.5992 20.7503 51.3635 20.237 50.8934 20.3149C50.6883 19.9118 50.5557 19.4858 50.5111 19.0115C51.0538 19.5651 51.6495 20.065 52.0429 20.7369V20.7369Z" fill="#CA5DA7"/>
<path d="M62.1053 20.1899C61.8737 20.2208 61.7049 20.3686 61.5138 20.4775C61.3883 20.55 61.2348 20.7113 61.0897 20.4869C61.5501 19.9534 62.0118 19.4199 62.4722 18.8865C62.5057 18.9053 62.5392 18.9254 62.5726 18.9443C62.4164 19.3595 62.2615 19.7747 62.1053 20.1899Z" fill="#CA5EA7"/>
</g>
<defs>
<clipPath id="clip0_198_249">
<rect width="111.72" height="43" fill="white" transform="translate(0.640015)"/>
</clipPath>
</defs>
</svg>
